<?xml version="1.0" encoding="utf-8"?>
<!-- Generator: Adobe Illustrator 22.0.0, SVG Export Plug-In . SVG Version: 6.00 Build 0)  -->
<svg version="1.1" xmlns="http://www.w3.org/2000/svg" xmlns:xlink="http://www.w3.org/1999/xlink" x="0px" y="0px"
	 viewBox="0 0 351.3 63" style="enable-background:new 0 0 351.3 63;" xml:space="preserve">
<style type="text/css">
	.st0{fill:#FFFFFF;}
</style>
<g id="Capa_1">
	<g>
		<polygon class="st0" points="22.4,14.3 22.4,48.7 29.3,49.4 29.3,62.9 0,62.9 0,49.6 6.9,48.8 6.9,14.3 0,13.5 0,0.1 29.3,0.1 
			29.3,13.4 		"/>
		<polygon class="st0" points="37.5,62.9 37.5,49.6 44.4,48.8 44.4,14.3 37.5,13.6 37.5,0.1 93.2,0.1 93.2,23.5 77.6,23.5 76,13.7 
			60,13.7 60,24.5 71.7,24.5 71.7,38.1 60,38.1 60,49.3 76,49.3 77.6,39.6 93.2,39.6 93.2,62.9 		"/>
		<path class="st0" d="M127.3,15.1c-5.5,0-9.9,3.8-9.9,8.5v15.8c0,4.8,4.4,8.6,9.9,8.6h11.2l1.4-8.4h15.5v23.3h-28.2
			c-14.9,0-26.9-10.5-26.9-23.5V23.6c0-12.9,12-23.4,26.9-23.4h28.2v23.2H140l-1.4-8.3H127.3z"/>
		<rect x="172.5" y="0.2" class="st0" width="3.5" height="14.2"/>
		<polygon class="st0" points="191.1,0.2 191.1,14.4 187.6,14.4 181.9,5.6 181.9,14.4 178.4,14.4 178.4,0.2 181.9,0.2 187.6,9 
			187.6,0.2 		"/>
		<path class="st0" d="M198.7,14.5c-3.1,0-5.4-1.5-5.5-4.4h3.7c0.1,1.1,0.8,1.6,1.8,1.6c1,0,1.7-0.5,1.7-1.3c0-2.6-7.1-1.2-7.1-6.2
			c0-2.7,2.2-4.2,5.2-4.2c3.1,0,5.2,1.5,5.3,4.2H200c-0.1-0.9-0.7-1.5-1.6-1.5c-0.8,0-1.5,0.4-1.5,1.3c0,2.5,7,1.4,7,6.1
			C203.9,12.5,202.1,14.5,198.7,14.5"/>
		<polygon class="st0" points="205.3,0.2 216.2,0.2 216.2,3 212.5,3 212.5,14.4 209,14.4 209,3 205.3,3 		"/>
		<rect x="218" y="0.2" class="st0" width="3.5" height="14.2"/>
		<polygon class="st0" points="223.2,0.2 234.1,0.2 234.1,3 230.4,3 230.4,14.4 226.9,14.4 226.9,3 223.2,3 		"/>
		<path class="st0" d="M235.8,0.2h3.5v8.5c0,1.7,0.8,2.6,2.5,2.6c1.6,0,2.5-1,2.5-2.6V0.2h3.5v8.5c0,3.9-2.7,5.9-6,5.9
			c-3.3,0-5.9-1.9-5.9-5.9V0.2z"/>
		<polygon class="st0" points="249.4,0.2 260.3,0.2 260.3,3 256.6,3 256.6,14.4 253.1,14.4 253.1,3 249.4,3 		"/>
		<path class="st0" d="M268.8,14.5c-4,0-7.3-3-7.3-7.3c0-4.3,3.3-7.3,7.3-7.3c4,0,7.3,3,7.3,7.3C276,11.5,272.8,14.5,268.8,14.5
			 M268.8,11.4c2.3,0,3.7-1.6,3.7-4.1c0-2.5-1.5-4.1-3.7-4.1c-2.3,0-3.8,1.6-3.8,4.1C265,9.7,266.5,11.4,268.8,11.4"/>
		<path class="st0" d="M295,7.3c0,4.2-2.9,7.1-7.4,7.1h-5.3V0.2h5.3C292.1,0.2,295,3.1,295,7.3 M287.3,11.4c2.6,0,4.1-1.5,4.1-4.1
			c0-2.6-1.5-4.1-4.1-4.1h-1.6v8.2H287.3z"/>
		<polygon class="st0" points="305.6,3 300.4,3 300.4,5.8 305,5.8 305,8.5 300.4,8.5 300.4,11.6 305.6,11.6 305.6,14.4 296.9,14.4 
			296.9,0.2 305.6,0.2 		"/>
		<polygon class="st0" points="181.1,27.2 175.9,27.2 175.9,30.1 180.5,30.1 180.5,32.8 175.9,32.8 175.9,35.9 181.1,35.9 
			181.1,38.6 172.5,38.6 172.5,24.5 181.1,24.5 		"/>
		<polygon class="st0" points="196.1,24.5 196.1,38.6 192.6,38.6 186.8,29.9 186.8,38.6 183.4,38.6 183.4,24.5 186.8,24.5 
			192.6,33.2 192.6,24.5 		"/>
		<path class="st0" d="M203.7,38.8c-3.1,0-5.4-1.5-5.5-4.4h3.7c0.1,1.1,0.8,1.6,1.8,1.6c1,0,1.7-0.5,1.7-1.3c0-2.6-7.1-1.2-7.1-6.2
			c0-2.7,2.2-4.2,5.2-4.2c3.1,0,5.2,1.5,5.3,4.2H205c-0.1-0.9-0.7-1.5-1.6-1.5c-0.8,0-1.5,0.4-1.5,1.3c0,2.5,7,1.4,7,6.1
			C208.9,36.8,207,38.8,203.7,38.8"/>
		<polygon class="st0" points="219.7,27.2 214.5,27.2 214.5,30.1 219.1,30.1 219.1,32.8 214.5,32.8 214.5,35.9 219.7,35.9 
			219.7,38.6 211,38.6 211,24.5 219.7,24.5 		"/>
		<path class="st0" d="M234.6,24.5v14.2h-3.5l-5.8-8.8v8.8h-3.5V24.5h3.5l5.8,8.8v-8.8H234.6z M227,20.5c1.2,0,1.8,0.9,2.6,0.9
			c0.5,0,0.8-0.3,0.9-0.9h1.8c-0.3,2.1-1.4,3-2.8,3c-1.2,0-1.8-0.9-2.6-0.9c-0.5,0-0.8,0.3-0.9,0.9h-1.8
			C224.6,21.3,225.6,20.5,227,20.5"/>
		<path class="st0" d="M246,36.1h-5.3l-0.8,2.5h-3.6l5.1-14.2h4l5.1,14.2h-3.7L246,36.1z M243.3,28.3l-1.7,5.2h3.5L243.3,28.3z"/>
		<polygon class="st0" points="264.7,24.5 264.7,38.6 261.3,38.6 255.5,29.9 255.5,38.6 252,38.6 252,24.5 255.5,24.5 261.3,33.2 
			261.3,24.5 		"/>
		<polygon class="st0" points="277,27.1 270.9,35.8 277,35.8 277,38.6 267,38.6 267,36 273,27.3 267,27.3 267,24.5 277,24.5 		"/>
		<path class="st0" d="M288.1,36.1h-5.3l-0.8,2.5h-3.6l5.1-14.2h4l5.1,14.2h-3.7L288.1,36.1z M285.5,28.3l-1.7,5.2h3.5L285.5,28.3z"
			/>
		<path class="st0" d="M311.2,31.5c0,4.2-2.9,7.1-7.4,7.1h-5.3V24.5h5.3C308.3,24.5,311.2,27.3,311.2,31.5 M303.5,35.6
			c2.6,0,4.1-1.5,4.1-4.1s-1.5-4.1-4.1-4.1h-1.6v8.2H303.5z"/>
		<polygon class="st0" points="321.8,27.2 316.6,27.2 316.6,30.1 321.2,30.1 321.2,32.8 316.6,32.8 316.6,35.9 321.8,35.9 
			321.8,38.6 313.1,38.6 313.1,24.5 321.8,24.5 		"/>
		<polygon class="st0" points="331.8,24.5 331.8,36 336.3,36 336.3,38.6 328.4,38.6 328.4,24.5 		"/>
		<path class="st0" d="M346.8,36.1h-5.3l-0.8,2.5h-3.6l5.1-14.2h4l5.1,14.2h-3.7L346.8,36.1z M344.2,28.3l-1.7,5.2h3.5L344.2,28.3z"
			/>
		<path class="st0" d="M179,48.5c3.4,0,5.9,1.9,6.7,5h-3.8c-0.6-1.2-1.7-1.8-3-1.8c-2.1,0-3.6,1.6-3.6,4.1c0,2.5,1.5,4.1,3.6,4.1
			c1.3,0,2.4-0.6,3-1.8h3.8c-0.8,3.1-3.4,5-6.7,5c-4.2,0-7.1-3-7.1-7.2C171.9,51.5,174.8,48.5,179,48.5"/>
		<path class="st0" d="M194.6,63c-4,0-7.3-3-7.3-7.3c0-4.3,3.3-7.3,7.3-7.3c4,0,7.3,3,7.3,7.3C201.8,60,198.6,63,194.6,63
			 M194.6,59.9c2.3,0,3.7-1.6,3.7-4.1c0-2.5-1.5-4.1-3.7-4.1c-2.3,0-3.8,1.6-3.8,4.1C190.8,58.2,192.3,59.9,194.6,59.9"/>
		<polygon class="st0" points="216.4,48.7 216.4,62.9 213,62.9 207.2,54.1 207.2,62.9 203.7,62.9 203.7,48.7 207.2,48.7 213,57.5 
			213,48.7 		"/>
		<path class="st0" d="M224.1,63c-3.1,0-5.4-1.5-5.5-4.4h3.7c0.1,1.1,0.8,1.6,1.8,1.6c1,0,1.7-0.5,1.7-1.3c0-2.6-7.1-1.2-7.1-6.2
			c0-2.7,2.2-4.2,5.2-4.2c3.1,0,5.2,1.5,5.3,4.2h-3.7c-0.1-0.9-0.7-1.5-1.6-1.5c-0.8,0-1.5,0.4-1.5,1.3c0,2.5,7,1.4,7,6.1
			C229.2,61,227.4,63,224.1,63"/>
		<polygon class="st0" points="230.6,48.7 241.6,48.7 241.6,51.5 237.8,51.5 237.8,62.9 234.3,62.9 234.3,51.5 230.6,51.5 		"/>
		<path class="st0" d="M249.1,48.7c3.5,0,5.2,2,5.2,4.5c0,1.8-1,3.5-3.2,4.1l3.3,5.6h-3.9l-3-5.4h-0.8v5.4h-3.5V48.7H249.1z
			 M248.9,51.6h-2.1v3.5h2.1c1.3,0,1.9-0.7,1.9-1.8C250.8,52.3,250.2,51.6,248.9,51.6"/>
		<path class="st0" d="M256.4,48.7h3.5v8.5c0,1.7,0.8,2.6,2.5,2.6c1.6,0,2.5-1,2.5-2.6v-8.5h3.5v8.5c0,3.9-2.7,5.9-6,5.9
			c-3.3,0-5.9-1.9-5.9-5.9V48.7z"/>
		<path class="st0" d="M277.3,48.5c3.4,0,5.9,1.9,6.7,5h-3.8c-0.6-1.2-1.7-1.8-3-1.8c-2.1,0-3.6,1.6-3.6,4.1c0,2.5,1.5,4.1,3.6,4.1
			c1.3,0,2.4-0.6,3-1.8h3.8c-0.8,3.1-3.4,5-6.7,5c-4.2,0-7.1-3-7.1-7.2C270.1,51.5,273.1,48.5,277.3,48.5"/>
		<path class="st0" d="M292.7,48.5c3.4,0,5.9,1.9,6.7,5h-3.8c-0.6-1.2-1.7-1.8-3-1.8c-2.1,0-3.6,1.6-3.6,4.1c0,2.5,1.5,4.1,3.6,4.1
			c1.3,0,2.4-0.6,3-1.8h3.8c-0.8,3.1-3.4,5-6.7,5c-4.2,0-7.1-3-7.1-7.2C285.5,51.5,288.5,48.5,292.7,48.5"/>
		<rect x="301.5" y="48.7" class="st0" width="3.5" height="14.2"/>
		<path class="st0" d="M314.2,63c-4,0-7.3-3-7.3-7.3c0-4.3,3.3-7.3,7.3-7.3c4,0,7.3,3,7.3,7.3C321.4,60,318.2,63,314.2,63
			 M314.2,59.9c2.3,0,3.7-1.6,3.7-4.1c0-2.5-1.5-4.1-3.7-4.1c-2.3,0-3.8,1.6-3.8,4.1C310.4,58.2,311.9,59.9,314.2,59.9 M316.5,43.2
			v2.7l-4.9,2v-2.4L316.5,43.2z"/>
		<polygon class="st0" points="336.1,48.7 336.1,62.9 332.6,62.9 326.8,54.1 326.8,62.9 323.4,62.9 323.4,48.7 326.8,48.7 
			332.6,57.5 332.6,48.7 		"/>
	</g>
</g>
<g id="Layer_2">
</g>
</svg>
